# xmcd
# 
# Track frame offsets:
#     150
#     13682
#     33265
#     48472
#     59904
#     78005
#     95753
#     107665
#     122927
#     144033
#     160860
#     177282
# 
# Disc length: 2601
# 
# Revision: 0
# Processed by: cddbd v1.5.2PL0 Copyright (c) Steve Scherf et al.
# Submitted via: fre:ac v1.0.31
# 
DISCID=9a0a270c
DTITLE=Whitney Shay - Stand Up!
DYEAR=0
DGENRE=Country
TTITLE0=Stand Up!
TTITLE1=Someone You Never Got To Know
TTITLE2=Equal Ground
TTITLE3=P. S. It's Not About You
TTITLE4=I Thought We Were Through
TTITLE5=Far Apart (Still Close)
TTITLE6=You Won't Put Out This Flame
TTITLE7=Tell The Truth
TTITLE8=Boy Sit Down
TTITLE9=I Never Meant To Love Him
TTITLE10=Getting In My Way
TTITLE11=Change With The Times
EXTD=
EXTT0=
EXTT1=
EXTT2=
EXTT3=
EXTT4=
EXTT5=
EXTT6=
EXTT7=
EXTT8=
EXTT9=
EXTT10=
EXTT11=
PLAYORDER=
